<?xml version="1.0" encoding="UTF-8"?>
<svg id="Calque_1" data-name="Calque 1" xmlns="http://www.w3.org/2000/svg" viewBox="0 0 941.32 699.5">
  <defs>
    <style>
      .cls-1, .cls-2, .cls-3, .cls-4, .cls-5, .cls-6, .cls-7, .cls-8, .cls-9, .cls-10, .cls-11, .cls-12 {
        fill: #000;
      }

      .cls-1, .cls-13 {
        stroke-width: 0px;
      }

      .cls-2, .cls-3, .cls-14, .cls-4, .cls-5, .cls-6, .cls-7, .cls-8, .cls-9, .cls-10, .cls-12 {
        isolation: isolate;
      }

      .cls-2, .cls-3, .cls-4, .cls-5, .cls-6, .cls-7, .cls-8, .cls-9, .cls-10, .cls-12 {
        font-size: 13px;
      }

      .cls-2, .cls-3, .cls-10 {
        letter-spacing: -.02em;
      }

      .cls-2, .cls-4, .cls-6, .cls-7, .cls-10 {
        font-weight: 700;
      }

      .cls-2, .cls-6, .cls-7 {
        font-family: Arial-BoldMT, Arial;
      }

      .cls-3, .cls-5, .cls-8, .cls-9, .cls-12 {
        font-family: ArialMT, Arial;
      }

      .cls-15 {
        fill: none;
        stroke: #000;
        stroke-miterlimit: 10;
      }

      .cls-4, .cls-10 {
        font-family: Arial-BoldItalicMT, Arial;
        font-style: italic;
      }

      .cls-5, .cls-16 {
        letter-spacing: -.06em;
      }

      .cls-6, .cls-9 {
        letter-spacing: -.06em;
      }

      .cls-8 {
        letter-spacing: -.06em;
      }

      .cls-11 {
        font-family: MyriadPro-Regular, 'Myriad Pro';
        font-size: 12px;
      }

      .cls-13 {
        fill: #fff;
      }
    </style>
  </defs>
  <rect class="cls-1" x="7.5" y="7.5" width="274.89" height="236"/>
  <rect class="cls-13" x=".5" y=".5" width="274.89" height="236"/>
  <path class="cls-15" d="M.5.5h274.89v236H.5V.5Z"/>
  <path class="cls-15" d="M.5,25.5h274.89"/>
  <path class="cls-15" d="M.5,63.5h274.89"/>
  <g class="cls-14">
    <text class="cls-7" transform="translate(107.03 14)"><tspan x="0" y="0">Catalogue</tspan></text>
  </g>
  <g class="cls-14">
    <text class="cls-12" transform="translate(5.5 37)"><tspan x="0" y="0">#nb_trajets: int</tspan></text>
  </g>
  <g class="cls-14">
    <text class="cls-12" transform="translate(5.5 52)"><tspan x="0" y="0">#liste_trajets: Elem</tspan></text>
    <text class="cls-8" transform="translate(115.32 52)"><tspan x="0" y="0">T</tspan></text>
    <text class="cls-12" transform="translate(122.78 52)"><tspan x="0" y="0">rajet*</tspan></text>
  </g>
  <g class="cls-14">
    <text class="cls-12" transform="translate(5.5 75)"><tspan x="0" y="0">«constructor»+Catalogue()</tspan></text>
  </g>
  <g class="cls-14">
    <text class="cls-12" transform="translate(5.5 90)"><tspan x="0" y="0">«destructor»+virtual ~Catalogue()</tspan></text>
  </g>
  <g class="cls-14">
    <text class="cls-12" transform="translate(5.5 105)"><tspan x="0" y="0">#InitialiserCatalogue(): InitialiserCatalogue</tspan></text>
  </g>
  <g class="cls-14">
    <text class="cls-12" transform="translate(5.5 120)"><tspan x="0" y="0">#Creer</tspan></text>
    <text class="cls-8" transform="translate(45.24 120)"><tspan x="0" y="0">T</tspan></text>
    <text class="cls-12" transform="translate(52.69 120)"><tspan x="0" y="0">rajetCompose(): Creer</tspan></text>
    <text class="cls-8" transform="translate(182.01 120)"><tspan x="0" y="0">T</tspan></text>
    <text class="cls-12" transform="translate(189.47 120)"><tspan x="0" y="0">rajetCompose</tspan></text>
  </g>
  <g class="cls-14">
    <text class="cls-12" transform="translate(5.5 135)"><tspan x="0" y="0">#Creer</tspan></text>
    <text class="cls-8" transform="translate(45.24 135)"><tspan x="0" y="0">T</tspan></text>
    <text class="cls-12" transform="translate(52.69 135)"><tspan x="0" y="0">rajetSimple(): Creer</tspan></text>
    <text class="cls-8" transform="translate(166.11 135)"><tspan x="0" y="0">T</tspan></text>
    <text class="cls-12" transform="translate(173.57 135)"><tspan x="0" y="0">rajetSimple</tspan></text>
  </g>
  <g class="cls-14">
    <text class="cls-12" transform="translate(5.5 150)"><tspan x="0" y="0">#Search(): void</tspan></text>
  </g>
  <g class="cls-14">
    <text class="cls-12" transform="translate(5.5 165)"><tspan x="0" y="0">+Rechercher</tspan></text>
    <text class="cls-8" transform="translate(80.29 165)"><tspan x="0" y="0">T</tspan></text>
    <text class="cls-12" transform="translate(87.75 165)"><tspan x="0" y="0">rajet(): void</tspan></text>
  </g>
  <g class="cls-14">
    <text class="cls-12" transform="translate(5.5 180)"><tspan x="0" y="0">+Ajouter</tspan></text>
    <text class="cls-8" transform="translate(54.28 180)"><tspan x="0" y="0">T</tspan></text>
    <text class="cls-12" transform="translate(61.74 180)"><tspan x="0" y="0">rajet(t):</tspan></text>
    <text class="cls-9" transform="translate(102.91 180)"><tspan x="0" y="0"> </tspan></text>
    <text class="cls-12" transform="translate(105.81 180)"><tspan x="0" y="0">Ajouter</tspan></text>
    <text class="cls-8" transform="translate(147 180)"><tspan x="0" y="0">T</tspan></text>
    <text class="cls-12" transform="translate(154.45 180)"><tspan x="0" y="0">rajet</tspan></text>
  </g>
  <g class="cls-14">
    <text class="cls-12" transform="translate(5.5 195)"><tspan x="0" y="0">+Creer</tspan></text>
    <text class="cls-8" transform="translate(45.6 195)"><tspan x="0" y="0">T</tspan></text>
    <text class="cls-12" transform="translate(53.06 195)"><tspan x="0" y="0">rajet(): Creer</tspan></text>
    <text class="cls-8" transform="translate(126.73 195)"><tspan x="0" y="0">T</tspan></text>
    <text class="cls-12" transform="translate(134.19 195)"><tspan x="0" y="0">rajet</tspan></text>
  </g>
  <g class="cls-14">
    <text class="cls-12" transform="translate(5.5 210)"><tspan x="0" y="0">+Supprimer</tspan></text>
    <text class="cls-8" transform="translate(73.06 210)"><tspan x="0" y="0">T</tspan></text>
    <text class="cls-12" transform="translate(80.52 210)"><tspan x="0" y="0">rajet(t): Supprimer</tspan></text>
    <text class="cls-8" transform="translate(185.27 210)"><tspan x="0" y="0">T</tspan></text>
    <text class="cls-12" transform="translate(192.72 210)"><tspan x="0" y="0">rajet</tspan></text>
  </g>
  <g class="cls-14">
    <text class="cls-12" transform="translate(5.5 225)"><tspan x="0" y="0">+</tspan><tspan class="cls-16" x="7.59" y="0">A</tspan></text>
    <text class="cls-3" transform="translate(21.76 225)"><tspan x="0" y="0">f</tspan></text>
    <text class="cls-12" transform="translate(25.14 225)"><tspan x="0" y="0">ficherCatalogue():</tspan></text>
    <text class="cls-9" transform="translate(128.47 225)"><tspan x="0" y="0"> </tspan></text>
    <text class="cls-5" transform="translate(131.36 225)"><tspan x="0" y="0">A</tspan></text>
    <text class="cls-3" transform="translate(140.03 225)"><tspan x="0" y="0">f</tspan></text>
    <text class="cls-12" transform="translate(143.41 225)"><tspan x="0" y="0">ficherCatalogue</tspan></text>
  </g>
  <rect class="cls-1" x="487.5" y="39.5" width="228.78" height="161"/>
  <rect class="cls-13" x="480.5" y="32.5" width="228.78" height="161"/>
  <path class="cls-15" d="M480.5,32.5h228.78v161h-228.78V32.5h0Z"/>
  <path class="cls-15" d="M480.5,57.5h228.78"/>
  <path class="cls-15" d="M480.5,95.5h228.78"/>
  <g class="cls-14">
    <text class="cls-7" transform="translate(562.51 46)"><tspan x="0" y="0">Elem</tspan></text>
    <text class="cls-6" transform="translate(593.58 46)"><tspan x="0" y="0">T</tspan></text>
    <text class="cls-7" transform="translate(600.81 46)"><tspan x="0" y="0">rajet</tspan></text>
  </g>
  <g class="cls-14">
    <text class="cls-12" transform="translate(485.5 69)"><tspan x="0" y="0">#t:</tspan></text>
    <text class="cls-3" transform="translate(499.95 69)"><tspan x="0" y="0"> </tspan></text>
    <text class="cls-8" transform="translate(503.33 69)"><tspan x="0" y="0">T</tspan></text>
    <text class="cls-12" transform="translate(510.79 69)"><tspan x="0" y="0">rajet*</tspan></text>
  </g>
  <g class="cls-14">
    <text class="cls-12" transform="translate(485.5 84)"><tspan x="0" y="0">#next: Elem</tspan></text>
    <text class="cls-8" transform="translate(554.14 84)"><tspan x="0" y="0">T</tspan></text>
    <text class="cls-12" transform="translate(561.6 84)"><tspan x="0" y="0">rajet*</tspan></text>
  </g>
  <g class="cls-14">
    <text class="cls-12" transform="translate(485.5 107)"><tspan x="0" y="0">«constructor»+Elem</tspan></text>
    <text class="cls-8" transform="translate(601.47 107)"><tspan x="0" y="0">T</tspan></text>
    <text class="cls-12" transform="translate(608.93 107)"><tspan x="0" y="0">rajet()</tspan></text>
  </g>
  <g class="cls-14">
    <text class="cls-12" transform="translate(485.5 122)"><tspan x="0" y="0">«constructor»+Elem</tspan></text>
    <text class="cls-8" transform="translate(601.47 122)"><tspan x="0" y="0">T</tspan></text>
    <text class="cls-12" transform="translate(608.93 122)"><tspan x="0" y="0">rajet(t)</tspan></text>
  </g>
  <g class="cls-14">
    <text class="cls-12" transform="translate(485.5 137)"><tspan x="0" y="0">«destructor»+virtual ~Elem</tspan></text>
    <text class="cls-8" transform="translate(640.85 137)"><tspan x="0" y="0">T</tspan></text>
    <text class="cls-12" transform="translate(648.31 137)"><tspan x="0" y="0">rajet()</tspan></text>
  </g>
  <g class="cls-14">
    <text class="cls-12" transform="translate(485.5 152)"><tspan x="0" y="0">+GetNext(): GetNext</tspan></text>
  </g>
  <g class="cls-14">
    <text class="cls-12" transform="translate(485.5 167)"><tspan x="0" y="0">+Get</tspan></text>
    <text class="cls-8" transform="translate(514.05 167)"><tspan x="0" y="0">T</tspan></text>
    <text class="cls-12" transform="translate(521.5 167)"><tspan x="0" y="0">rajet(): Get</tspan></text>
    <text class="cls-8" transform="translate(583.63 167)"><tspan x="0" y="0">T</tspan></text>
    <text class="cls-12" transform="translate(591.09 167)"><tspan x="0" y="0">rajet</tspan></text>
  </g>
  <g class="cls-14">
    <text class="cls-12" transform="translate(485.5 182)"><tspan x="0" y="0">+SetNext(elem): SetNext</tspan></text>
  </g>
  <rect class="cls-1" x="567.5" y="535.5" width="373.82" height="161"/>
  <rect class="cls-13" x="560.5" y="528.5" width="373.82" height="161"/>
  <path class="cls-15" d="M560.5,528.5h373.82v161h-373.82v-161Z"/>
  <path class="cls-15" d="M560.5,553.5h373.82"/>
  <path class="cls-15" d="M560.5,591.5h373.82"/>
  <g class="cls-14">
    <text class="cls-7" transform="translate(739.24 542)"><tspan x="0" y="0">TC</tspan></text>
  </g>
  <g class="cls-14">
    <text class="cls-12" transform="translate(565.5 565)"><tspan x="0" y="0">#TS_list: Elem</tspan></text>
    <text class="cls-8" transform="translate(649.3 565)"><tspan x="0" y="0">T</tspan></text>
    <text class="cls-12" transform="translate(656.76 565)"><tspan x="0" y="0">rajet*</tspan></text>
  </g>
  <g class="cls-14">
    <text class="cls-12" transform="translate(565.5 580)"><tspan x="0" y="0">#nb_escales: int</tspan></text>
  </g>
  <g class="cls-14">
    <text class="cls-12" transform="translate(565.5 603)"><tspan x="0" y="0">«constructor»+TC()</tspan></text>
  </g>
  <g class="cls-14">
    <text class="cls-12" transform="translate(565.5 618)"><tspan x="0" y="0">«constructor»+TC(depart, destination)</tspan></text>
  </g>
  <g class="cls-14">
    <text class="cls-12" transform="translate(565.5 633)"><tspan x="0" y="0">«constructor»+TC(depart: </tspan></text>
    <text class="cls-3" transform="translate(717.6 633)"><tspan x="0" y="0">V</tspan></text>
    <text class="cls-12" transform="translate(726.03 633)"><tspan x="0" y="0">ille, destination: </tspan></text>
    <text class="cls-3" transform="translate(819.25 633)"><tspan x="0" y="0">V</tspan></text>
    <text class="cls-12" transform="translate(827.69 633)"><tspan x="0" y="0">ille)</tspan></text>
  </g>
  <g class="cls-14">
    <text class="cls-12" transform="translate(565.5 648)"><tspan x="0" y="0">«destructor»+virtual ~TC()</tspan></text>
  </g>
  <g class="cls-14">
    <text class="cls-12" transform="translate(565.5 663)"><tspan x="0" y="0">#CreerListe(depart: </tspan></text>
    <text class="cls-3" transform="translate(681.11 663)"><tspan x="0" y="0">V</tspan></text>
    <text class="cls-12" transform="translate(689.55 663)"><tspan x="0" y="0">ille, destination: </tspan></text>
    <text class="cls-3" transform="translate(782.77 663)"><tspan x="0" y="0">V</tspan></text>
    <text class="cls-12" transform="translate(791.2 663)"><tspan x="0" y="0">ille): CreerListe</tspan></text>
  </g>
  <g class="cls-14">
    <text class="cls-12" transform="translate(565.5 678)"><tspan x="0" y="0">+</tspan><tspan class="cls-16" x="7.59" y="0">A</tspan></text>
    <text class="cls-3" transform="translate(581.76 678)"><tspan x="0" y="0">f</tspan></text>
    <text class="cls-12" transform="translate(585.14 678)"><tspan x="0" y="0">ficher</tspan></text>
    <text class="cls-8" transform="translate(616.93 678)"><tspan x="0" y="0">T</tspan></text>
    <text class="cls-12" transform="translate(624.39 678)"><tspan x="0" y="0">rajet(index: int):</tspan></text>
    <text class="cls-9" transform="translate(713.98 678)"><tspan x="0" y="0"> </tspan></text>
    <text class="cls-5" transform="translate(716.87 678)"><tspan x="0" y="0">A</tspan></text>
    <text class="cls-3" transform="translate(725.54 678)"><tspan x="0" y="0">f</tspan></text>
    <text class="cls-12" transform="translate(728.92 678)"><tspan x="0" y="0">ficher</tspan></text>
    <text class="cls-8" transform="translate(760.71 678)"><tspan x="0" y="0">T</tspan></text>
    <text class="cls-12" transform="translate(768.17 678)"><tspan x="0" y="0">rajet</tspan></text>
  </g>
  <rect class="cls-1" x="407.5" y="303.5" width="389.23" height="176"/>
  <rect class="cls-13" x="400.5" y="296.5" width="389.23" height="176"/>
  <path class="cls-15" d="M400.5,296.5h389.23v176h-389.23v-176h0Z"/>
  <path class="cls-15" d="M400.5,321.5h389.23"/>
  <path class="cls-15" d="M400.5,359.5h389.23"/>
  <g class="cls-14">
    <text class="cls-10" transform="translate(578.03 310)"><tspan x="0" y="0">T</tspan></text>
    <text class="cls-4" transform="translate(585.74 310)"><tspan x="0" y="0">rajet</tspan></text>
  </g>
  <g class="cls-14">
    <text class="cls-12" transform="translate(405.5 333)"><tspan x="0" y="0">#depart: </tspan></text>
    <text class="cls-3" transform="translate(456.81 333)"><tspan x="0" y="0">V</tspan></text>
    <text class="cls-12" transform="translate(465.25 333)"><tspan x="0" y="0">ille</tspan></text>
  </g>
  <g class="cls-14">
    <text class="cls-12" transform="translate(405.5 348)"><tspan x="0" y="0">#destination: </tspan></text>
    <text class="cls-3" transform="translate(482.83 348)"><tspan x="0" y="0">V</tspan></text>
    <text class="cls-12" transform="translate(491.27 348)"><tspan x="0" y="0">ille</tspan></text>
  </g>
  <g class="cls-14">
    <text class="cls-12" transform="translate(405.5 371)"><tspan x="0" y="0">«constructor»+</tspan></text>
    <text class="cls-8" transform="translate(491.85 371)"><tspan x="0" y="0">T</tspan></text>
    <text class="cls-12" transform="translate(499.31 371)"><tspan x="0" y="0">rajet()</tspan></text>
  </g>
  <g class="cls-14">
    <text class="cls-12" transform="translate(405.5 386)"><tspan x="0" y="0">«constructor»+</tspan></text>
    <text class="cls-8" transform="translate(491.85 386)"><tspan x="0" y="0">T</tspan></text>
    <text class="cls-12" transform="translate(499.31 386)"><tspan x="0" y="0">rajet(depart, destination)</tspan></text>
  </g>
  <g class="cls-14">
    <text class="cls-12" transform="translate(405.5 401)"><tspan x="0" y="0">«constructor»+</tspan></text>
    <text class="cls-8" transform="translate(491.85 401)"><tspan x="0" y="0">T</tspan></text>
    <text class="cls-12" transform="translate(499.31 401)"><tspan x="0" y="0">rajet(depart: </tspan></text>
    <text class="cls-3" transform="translate(573.01 401)"><tspan x="0" y="0">V</tspan></text>
    <text class="cls-12" transform="translate(581.45 401)"><tspan x="0" y="0">ille, destination: </tspan></text>
    <text class="cls-3" transform="translate(674.67 401)"><tspan x="0" y="0">V</tspan></text>
    <text class="cls-12" transform="translate(683.11 401)"><tspan x="0" y="0">ille)</tspan></text>
  </g>
  <g class="cls-14">
    <text class="cls-12" transform="translate(405.5 416)"><tspan x="0" y="0">«destructor»+virtual ~</tspan></text>
    <text class="cls-8" transform="translate(531.23 416)"><tspan x="0" y="0">T</tspan></text>
    <text class="cls-12" transform="translate(538.69 416)"><tspan x="0" y="0">rajet()</tspan></text>
  </g>
  <g class="cls-14">
    <text class="cls-12" transform="translate(405.5 431)"><tspan x="0" y="0">+</tspan><tspan class="cls-16" x="7.59" y="0">A</tspan></text>
    <text class="cls-3" transform="translate(421.76 431)"><tspan x="0" y="0">f</tspan></text>
    <text class="cls-12" transform="translate(425.14 431)"><tspan x="0" y="0">ficher</tspan></text>
    <text class="cls-8" transform="translate(456.93 431)"><tspan x="0" y="0">T</tspan></text>
    <text class="cls-12" transform="translate(464.39 431)"><tspan x="0" y="0">rajet(index: int):</tspan></text>
    <text class="cls-9" transform="translate(553.98 431)"><tspan x="0" y="0"> </tspan></text>
    <text class="cls-5" transform="translate(556.87 431)"><tspan x="0" y="0">A</tspan></text>
    <text class="cls-3" transform="translate(565.54 431)"><tspan x="0" y="0">f</tspan></text>
    <text class="cls-12" transform="translate(568.92 431)"><tspan x="0" y="0">ficher</tspan></text>
    <text class="cls-8" transform="translate(600.71 431)"><tspan x="0" y="0">T</tspan></text>
    <text class="cls-12" transform="translate(608.17 431)"><tspan x="0" y="0">rajet</tspan></text>
  </g>
  <g class="cls-14">
    <text class="cls-12" transform="translate(405.5 446)"><tspan x="0" y="0">+GetDepart(): GetDepart</tspan></text>
  </g>
  <g class="cls-14">
    <text class="cls-12" transform="translate(405.5 461)"><tspan x="0" y="0">+GetDestination(): GetDestination</tspan></text>
  </g>
  <rect class="cls-1" x="7.5" y="535.5" width="533.88" height="164"/>
  <rect class="cls-13" x=".5" y="528.5" width="533.88" height="164"/>
  <path class="cls-15" d="M.5,528.5h533.88v164H.5v-164Z"/>
  <path class="cls-15" d="M.5,553.5h533.88"/>
  <path class="cls-15" d="M.5,576.5h533.88"/>
  <g class="cls-14">
    <text class="cls-7" transform="translate(259.63 542)"><tspan x="0" y="0">TS</tspan></text>
  </g>
  <g class="cls-14">
    <text class="cls-12" transform="translate(5.5 565)"><tspan x="0" y="0">#trans:</tspan></text>
    <text class="cls-3" transform="translate(45.24 565)"><tspan x="0" y="0"> </tspan></text>
    <text class="cls-8" transform="translate(48.62 565)"><tspan x="0" y="0">T</tspan></text>
    <text class="cls-12" transform="translate(56.08 565)"><tspan x="0" y="0">ransport</tspan></text>
  </g>
  <g class="cls-14">
    <text class="cls-12" transform="translate(5.5 588)"><tspan x="0" y="0">«constructor»+TS()</tspan></text>
  </g>
  <g class="cls-14">
    <text class="cls-12" transform="translate(5.5 603)"><tspan x="0" y="0">«constructor»+TS(depart, destination, transport)</tspan></text>
  </g>
  <g class="cls-14">
    <text class="cls-12" transform="translate(5.5 618)"><tspan x="0" y="0">«constructor»+TS(depart: </tspan></text>
    <text class="cls-3" transform="translate(156.88 618)"><tspan x="0" y="0">V</tspan></text>
    <text class="cls-12" transform="translate(165.31 618)"><tspan x="0" y="0">ille, destination: </tspan></text>
    <text class="cls-3" transform="translate(258.54 618)"><tspan x="0" y="0">V</tspan></text>
    <text class="cls-12" transform="translate(266.97 618)"><tspan x="0" y="0">ille, transport:</tspan></text>
    <text class="cls-3" transform="translate(345 618)"><tspan x="0" y="0"> </tspan></text>
    <text class="cls-8" transform="translate(348.38 618)"><tspan x="0" y="0">T</tspan></text>
    <text class="cls-12" transform="translate(355.84 618)"><tspan x="0" y="0">ransport)</tspan></text>
  </g>
  <g class="cls-14">
    <text class="cls-12" transform="translate(5.5 633)"><tspan x="0" y="0">«destructor»+virtual ~TS()</tspan></text>
  </g>
  <g class="cls-14">
    <text class="cls-12" transform="translate(5.5 648)"><tspan x="0" y="0">+Get</tspan></text>
    <text class="cls-8" transform="translate(34.05 648)"><tspan x="0" y="0">T</tspan></text>
    <text class="cls-12" transform="translate(41.5 648)"><tspan x="0" y="0">rans(): Get</tspan></text>
    <text class="cls-8" transform="translate(103.63 648)"><tspan x="0" y="0">T</tspan></text>
    <text class="cls-12" transform="translate(111.09 648)"><tspan x="0" y="0">rans</tspan></text>
  </g>
  <g class="cls-14">
    <text class="cls-12" transform="translate(5.5 663)"><tspan x="0" y="0">+</tspan><tspan class="cls-16" x="7.59" y="0">A</tspan></text>
    <text class="cls-3" transform="translate(21.76 663)"><tspan x="0" y="0">f</tspan></text>
    <text class="cls-12" transform="translate(25.14 663)"><tspan x="0" y="0">ficher</tspan></text>
    <text class="cls-8" transform="translate(56.93 663)"><tspan x="0" y="0">T</tspan></text>
    <text class="cls-12" transform="translate(64.39 663)"><tspan x="0" y="0">rajet(index: int):</tspan></text>
    <text class="cls-9" transform="translate(153.98 663)"><tspan x="0" y="0"> </tspan></text>
    <text class="cls-5" transform="translate(156.87 663)"><tspan x="0" y="0">A</tspan></text>
    <text class="cls-3" transform="translate(165.54 663)"><tspan x="0" y="0">f</tspan></text>
    <text class="cls-12" transform="translate(168.92 663)"><tspan x="0" y="0">ficher</tspan></text>
    <text class="cls-8" transform="translate(200.71 663)"><tspan x="0" y="0">T</tspan></text>
    <text class="cls-12" transform="translate(208.17 663)"><tspan x="0" y="0">rajet</tspan></text>
  </g>
  <rect class="cls-1" x="7.5" y="399.5" width="120.53" height="63"/>
  <rect class="cls-13" x=".5" y="392.5" width="120.53" height="63"/>
  <path class="cls-15" d="M.5,392.5h120.53v63H.5v-63Z"/>
  <path class="cls-15" d="M.5,430.5h120.53"/>
  <g class="cls-14">
    <text class="cls-12" transform="translate(17.9 404)"><tspan x="0" y="0">«enumeration»</tspan></text>
  </g>
  <g class="cls-14">
    <text class="cls-2" transform="translate(48.01 419)"><tspan x="0" y="0">V</tspan></text>
    <text class="cls-7" transform="translate(56.45 419)"><tspan x="0" y="0">ille</tspan></text>
  </g>
  <rect class="cls-1" x="7.5" y="303.5" width="120.53" height="63"/>
  <rect class="cls-13" x=".5" y="296.5" width="120.53" height="63"/>
  <path class="cls-15" d="M.5,296.5h120.53v63H.5v-63Z"/>
  <path class="cls-15" d="M.5,334.5h120.53"/>
  <g class="cls-14">
    <text class="cls-12" transform="translate(17.9 308)"><tspan x="0" y="0">«enumeration»</tspan></text>
  </g>
  <g class="cls-14">
    <text class="cls-6" transform="translate(31.29 323)"><tspan x="0" y="0">T</tspan></text>
    <text class="cls-7" transform="translate(38.51 323)"><tspan x="0" y="0">ransport</tspan></text>
  </g>
  <path class="cls-15" d="M386.5,527.5l79-54"/>
  <path class="cls-13" d="M453.47,491.92l12.03-18.42-21.53,4.52"/>
  <path class="cls-15" d="M453.47,491.92l12.03-18.42-21.53,4.52,9.5,13.9"/>
  <path class="cls-15" d="M691.5,527.5l-37-54"/>
  <path class="cls-13" d="M672.93,485.51l-18.43-12.01,4.54,21.53"/>
  <path class="cls-15" d="M672.93,485.51l-18.43-12.01,4.54,21.53,13.89-9.52"/>
  <path class="cls-15" d="M594.5,295.5v-101"/>
  <path class="cls-1" d="M598.71,204.66l-4.21-10.16-4.21,10.16,4.21,11.84"/>
  <path class="cls-15" d="M598.71,204.66l-4.21-10.16-4.21,10.16,4.21,11.84,4.21-11.84"/>
  <path class="cls-15" d="M479.5,114.5l-203,2"/>
  <path class="cls-1" d="M286.62,112.19l-10.12,4.31,10.2,4.11,11.8-4.33"/>
  <path class="cls-15" d="M286.62,112.19l-10.12,4.31,10.2,4.11,11.8-4.33-11.88-4.09"/>
  <path class="cls-15" d="M122.5,419.5l277-21"/>
  <path class="cls-15" d="M122.5,334.5l277,29"/>
  <text class="cls-11" transform="translate(289.82 100.36)"><tspan x="0" y="0">1</tspan></text>
  <text class="cls-11" transform="translate(453.94 102.22)"><tspan x="0" y="0">0..*</tspan></text>
</svg>